<svg width="20" height="21" viewBox="0 0 20 21" fill="none" xmlns="http://www.w3.org/2000/svg">
<path d="M10.0003 8.00002C9.33729 8.00002 8.7014 8.26341 8.23256 8.73225C7.76372 9.2011 7.50033 9.83698 7.50033 10.5C7.50033 11.1631 7.76372 11.7989 8.23256 12.2678C8.7014 12.7366 9.33729 13 10.0003 13C10.6634 13 11.2993 12.7366 11.7681 12.2678C12.2369 11.7989 12.5003 11.1631 12.5003 10.5C12.5003 9.83698 12.2369 9.2011 11.7681 8.73225C11.2993 8.26341 10.6634 8.00002 10.0003 8.00002ZM10.0003 6.33335C11.1054 6.33335 12.1652 6.77234 12.9466 7.55374C13.728 8.33514 14.167 9.39495 14.167 10.5C14.167 11.6051 13.728 12.6649 12.9466 13.4463C12.1652 14.2277 11.1054 14.6667 10.0003 14.6667C8.89526 14.6667 7.83545 14.2277 7.05405 13.4463C6.27265 12.6649 5.83366 11.6051 5.83366 10.5C5.83366 9.39495 6.27265 8.33514 7.05405 7.55374C7.83545 6.77234 8.89526 6.33335 10.0003 6.33335ZM15.417 6.12502C15.417 6.40129 15.3072 6.66624 15.1119 6.86159C14.9165 7.05694 14.6516 7.16669 14.3753 7.16669C14.0991 7.16669 13.8341 7.05694 13.6388 6.86159C13.4434 6.66624 13.3337 6.40129 13.3337 6.12502C13.3337 5.84875 13.4434 5.5838 13.6388 5.38845C13.8341 5.1931 14.0991 5.08335 14.3753 5.08335C14.6516 5.08335 14.9165 5.1931 15.1119 5.38845C15.3072 5.5838 15.417 5.84875 15.417 6.12502ZM10.0003 3.83335C7.93866 3.83335 7.60199 3.83919 6.64283 3.88169C5.98949 3.91252 5.55116 4.00002 5.14449 4.15835C4.80417 4.2833 4.4965 4.48357 4.24449 4.74419C3.98366 4.99619 3.78312 5.30384 3.65783 5.64419C3.49949 6.05252 3.41199 6.49002 3.38199 7.14252C3.33866 8.06252 3.33366 8.38419 3.33366 10.5C3.33366 12.5617 3.33949 12.8984 3.38199 13.8575C3.41283 14.51 3.50033 14.9492 3.65783 15.355C3.79949 15.7175 3.96616 15.9784 4.24283 16.255C4.52366 16.535 4.78449 16.7025 5.14283 16.8409C5.55449 17 5.99283 17.0884 6.64283 17.1184C7.56283 17.1617 7.88449 17.1667 10.0003 17.1667C12.062 17.1667 12.3987 17.1609 13.3578 17.1184C14.0095 17.0875 14.4487 17 14.8553 16.8425C15.1951 16.7169 15.5026 16.5171 15.7553 16.2575C16.0362 15.9767 16.2037 15.7159 16.342 15.3575C16.5003 14.9467 16.5887 14.5075 16.6187 13.8575C16.662 12.9375 16.667 12.6159 16.667 10.5C16.667 8.43835 16.6612 8.10169 16.6187 7.14252C16.5878 6.49085 16.5003 6.05085 16.342 5.64419C16.2164 5.30419 16.0162 4.99665 15.7562 4.74419C15.5043 4.48323 15.1966 4.28266 14.8562 4.15752C14.4478 3.99919 14.0095 3.91169 13.3578 3.88169C12.4378 3.83835 12.1162 3.83335 10.0003 3.83335ZM10.0003 2.16669C12.2645 2.16669 12.547 2.17502 13.4353 2.21669C14.3228 2.25835 14.927 2.39752 15.4587 2.60419C16.0087 2.81585 16.472 3.10252 16.9353 3.56502C17.3591 3.9816 17.687 4.48551 17.8962 5.04169C18.102 5.57252 18.242 6.17752 18.2837 7.06502C18.3228 7.95335 18.3337 8.23585 18.3337 10.5C18.3337 12.7642 18.3253 13.0467 18.2837 13.935C18.242 14.8225 18.102 15.4267 17.8962 15.9584C17.6876 16.5148 17.3596 17.0189 16.9353 17.435C16.5186 17.8586 16.0148 18.1865 15.4587 18.3959C14.9278 18.6017 14.3228 18.7417 13.4353 18.7834C12.547 18.8225 12.2645 18.8334 10.0003 18.8334C7.73616 18.8334 7.45366 18.825 6.56533 18.7834C5.67783 18.7417 5.07366 18.6017 4.54199 18.3959C3.9856 18.1871 3.4816 17.8591 3.06533 17.435C2.6415 17.0185 2.3136 16.5146 2.10449 15.9584C1.89783 15.4275 1.75866 14.8225 1.71699 13.935C1.67783 13.0467 1.66699 12.7642 1.66699 10.5C1.66699 8.23585 1.67533 7.95335 1.71699 7.06502C1.75866 6.17669 1.89783 5.57335 2.10449 5.04169C2.31302 4.48517 2.641 3.98112 3.06533 3.56502C3.48172 3.14105 3.98568 2.81313 4.54199 2.60419C5.07366 2.39752 5.67699 2.25835 6.56533 2.21669C7.45366 2.17752 7.73616 2.16669 10.0003 2.16669Z" fill="black"/>
</svg>
