<svg width="24" height="24" viewBox="0 0 24 24" fill="none" xmlns="http://www.w3.org/2000/svg">
<g clip-path="url(#clip0_521_892)">
<path d="M4 10C4.26522 10 4.51957 10.1054 4.70711 10.2929C4.89464 10.4804 5 10.7348 5 11V18C5 18.2652 4.89464 18.5196 4.70711 18.7071C4.51957 18.8947 4.26522 19 4 19C3.73478 19 3.48043 18.8947 3.29289 18.7071C3.10536 18.5196 3 18.2652 3 18V11C3 10.7348 3.10536 10.4804 3.29289 10.2929C3.48043 10.1054 3.73478 10 4 10ZM7 11C7.26522 11 7.51957 11.1054 7.70711 11.2929C7.89464 11.4804 8 11.7348 8 12V18C8 18.2652 7.89464 18.5196 7.70711 18.7071C7.51957 18.8947 7.26522 19 7 19C6.73478 19 6.48043 18.8947 6.29289 18.7071C6.10536 18.5196 6 18.2652 6 18V12C6 11.7348 6.10536 11.4804 6.29289 11.2929C6.48043 11.1054 6.73478 11 7 11ZM10 7.00001C10.2652 7.00001 10.5196 7.10537 10.7071 7.2929C10.8946 7.48044 11 7.73479 11 8.00001V18C11 18.2652 10.8946 18.5196 10.7071 18.7071C10.5196 18.8947 10.2652 19 10 19C9.73478 19 9.48043 18.8947 9.29289 18.7071C9.10536 18.5196 9 18.2652 9 18V8.00001C9 7.73479 9.10536 7.48044 9.29289 7.2929C9.48043 7.10537 9.73478 7.00001 10 7.00001ZM15 6.00001C16.5524 5.99995 18.0444 6.60157 19.1625 7.67847C20.2806 8.75537 20.9378 10.2237 20.996 11.775L20.999 12.035C21.8596 12.1577 22.6437 12.5962 23.1988 13.2652C23.7539 13.9342 24.0401 14.7858 24.0018 15.6542C23.9635 16.5227 23.6034 17.3458 22.9916 17.9633C22.3798 18.5808 21.56 18.9486 20.692 18.995L20.5 19H16.999C16.7441 18.9997 16.499 18.9021 16.3136 18.7272C16.1283 18.5522 16.0168 18.3131 16.0018 18.0586C15.9869 17.8042 16.0697 17.5536 16.2333 17.3582C16.3969 17.1627 16.6289 17.0371 16.882 17.007L17 17H20.447L20.585 16.998C20.9451 16.9786 21.2861 16.8302 21.5456 16.5799C21.8052 16.3296 21.9659 15.9942 21.9983 15.6351C22.0307 15.276 21.9327 14.9172 21.7222 14.6244C21.5117 14.3317 21.2028 14.1246 20.852 14.041L20.717 14.015L18.947 13.763L19 11.976L18.996 11.8C18.9464 10.8094 18.5305 9.87252 17.8291 9.17126C17.1276 8.46999 16.1906 8.05435 15.2 8.00501L15 8.00001C14.732 8.00001 14.469 8.02601 14.212 8.07701L14 8.12601V18C14 18.2449 13.91 18.4813 13.7473 18.6644C13.5845 18.8474 13.3603 18.9644 13.117 18.993L13 19C12.7348 19 12.4804 18.8947 12.2929 18.7071C12.1054 18.5196 12 18.2652 12 18L11.999 6.80301C12.911 6.27529 13.9463 5.99825 15 6.00001ZM1 12C1.26522 12 1.51957 12.1054 1.70711 12.2929C1.89464 12.4804 2 12.7348 2 13V17C2 17.2652 1.89464 17.5196 1.70711 17.7071C1.51957 17.8947 1.26522 18 1 18C0.734784 18 0.48043 17.8947 0.292893 17.7071C0.105357 17.5196 0 17.2652 0 17V13C0 12.7348 0.105357 12.4804 0.292893 12.2929C0.48043 12.1054 0.734784 12 1 12Z" fill="black"/>
</g>
<defs>
<clipPath id="clip0_521_892">
<rect width="24" height="24" fill="white"/>
</clipPath>
</defs>
</svg>
