<svg width="20" height="21" viewBox="0 0 20 21" fill="none" xmlns="http://www.w3.org/2000/svg">
<path d="M18.4683 5.21333C17.8321 5.49474 17.1574 5.67956 16.4666 5.76167C17.1947 5.32619 17.7397 4.64084 17.9999 3.83333C17.3166 4.24 16.5674 4.525 15.7866 4.67917C15.2621 4.11798 14.5669 3.7458 13.809 3.62049C13.0512 3.49517 12.2732 3.62374 11.596 3.98621C10.9187 4.34868 10.3802 4.92474 10.0642 5.62483C9.74812 6.32492 9.67221 7.10982 9.84825 7.8575C8.46251 7.78804 7.10686 7.42794 5.86933 6.80055C4.63179 6.17317 3.54003 5.29254 2.66492 4.21583C2.35516 4.74788 2.19238 5.35269 2.19326 5.96833C2.19326 7.17667 2.80826 8.24417 3.74326 8.86917C3.18993 8.85175 2.64878 8.70232 2.16492 8.43333V8.47667C2.16509 9.28142 2.44356 10.0613 2.95313 10.6842C3.46269 11.3071 4.17199 11.7346 4.96075 11.8942C4.4471 12.0334 3.90851 12.0539 3.38576 11.9542C3.60814 12.6469 4.04159 13.2527 4.62541 13.6868C5.20924 14.1208 5.9142 14.3615 6.64159 14.375C5.91866 14.9428 5.0909 15.3625 4.20566 15.6101C3.32041 15.8578 2.39503 15.9285 1.48242 15.8183C3.0755 16.8429 4.93 17.3868 6.82409 17.385C13.2349 17.385 16.7408 12.0742 16.7408 7.46833C16.7408 7.31833 16.7366 7.16667 16.7299 7.01833C17.4123 6.52514 18.0013 5.91418 18.4691 5.21417L18.4683 5.21333Z" fill="black"/>
</svg>
