<svg width="20" height="21" viewBox="0 0 20 21" fill="none" xmlns="http://www.w3.org/2000/svg">
<path d="M17.9528 5.91498C18.3337 7.39998 18.3337 10.5 18.3337 10.5C18.3337 10.5 18.3337 13.6 17.9528 15.085C17.7412 15.9058 17.122 16.5516 16.3378 16.77C14.9137 17.1666 10.0003 17.1666 10.0003 17.1666C10.0003 17.1666 5.08949 17.1666 3.66283 16.77C2.87533 16.5483 2.25699 15.9033 2.04783 15.085C1.66699 13.6 1.66699 10.5 1.66699 10.5C1.66699 10.5 1.66699 7.39998 2.04783 5.91498C2.25949 5.09415 2.87866 4.44831 3.66283 4.22998C5.08949 3.83331 10.0003 3.83331 10.0003 3.83331C10.0003 3.83331 14.9137 3.83331 16.3378 4.22998C17.1253 4.45165 17.7437 5.09665 17.9528 5.91498ZM8.33366 13.4166L13.3337 10.5L8.33366 7.58331V13.4166Z" fill="black"/>
</svg>
