<svg width="20" height="20" viewBox="0 0 20 20" fill="none" xmlns="http://www.w3.org/2000/svg">
<path d="M17.9528 5.41516C18.3337 6.90016 18.3337 10.0002 18.3337 10.0002C18.3337 10.0002 18.3337 13.1002 17.9528 14.5852C17.7412 15.406 17.122 16.0518 16.3378 16.2702C14.9137 16.6668 10.0003 16.6668 10.0003 16.6668C10.0003 16.6668 5.08949 16.6668 3.66283 16.2702C2.87533 16.0485 2.25699 15.4035 2.04783 14.5852C1.66699 13.1002 1.66699 10.0002 1.66699 10.0002C1.66699 10.0002 1.66699 6.90016 2.04783 5.41516C2.25949 4.59433 2.87866 3.9485 3.66283 3.73016C5.08949 3.3335 10.0003 3.3335 10.0003 3.3335C10.0003 3.3335 14.9137 3.3335 16.3378 3.73016C17.1253 3.95183 17.7437 4.59683 17.9528 5.41516ZM8.33366 12.9168L13.3337 10.0002L8.33366 7.0835V12.9168Z" fill="white"/>
</svg>
