<svg width="754" height="96" viewBox="0 0 754 96" fill="none" xmlns="http://www.w3.org/2000/svg">
<path d="M60.376 94L18.264 29.872V94H0.472V2.09599H21.464L61.528 63.024V2.09599H79.448V94H60.376ZM139.947 95.92C113.451 95.92 92.971 75.44 92.971 47.92C92.971 20.4 113.451 0.175995 139.947 0.175995C166.571 0.175995 187.179 20.4 187.179 47.92C187.179 75.44 166.571 95.92 139.947 95.92ZM139.947 78.512C156.843 78.512 167.083 64.816 167.083 47.92C167.083 31.024 156.843 17.584 139.947 17.584C123.179 17.584 112.939 31.024 112.939 47.92C112.939 64.816 123.179 78.512 139.947 78.512ZM239.56 94H220.104V19.632H191.176V2.09599H268.616V19.632H239.56V94ZM326.428 94H306.972V2.09599H366.364V18.992H326.428V42.16H360.092V58.928H326.428V94ZM421.322 95.92C394.826 95.92 374.346 75.44 374.346 47.92C374.346 20.4 394.826 0.175995 421.322 0.175995C447.946 0.175995 468.554 20.4 468.554 47.92C468.554 75.44 447.946 95.92 421.322 95.92ZM421.322 78.512C438.218 78.512 448.458 64.816 448.458 47.92C448.458 31.024 438.218 17.584 421.322 17.584C404.554 17.584 394.314 31.024 394.314 47.92C394.314 64.816 404.554 78.512 421.322 78.512ZM557.364 2.09599V59.056C557.364 80.816 543.54 95.92 519.604 95.92C495.284 95.92 481.716 80.816 481.716 59.056V2.09599H501.172V59.44C501.172 70.832 506.676 78.512 519.604 78.512C532.404 78.512 537.908 70.832 537.908 59.44V2.09599H557.364ZM635.876 94L593.764 29.872V94H575.972V2.09599H596.964L637.028 63.024V2.09599H654.948V94H635.876ZM706.487 94H673.847V2.09599H706.487C735.671 2.09599 753.335 20.784 753.335 47.536C753.335 74.288 735.031 94 706.487 94ZM693.303 18.864V77.232H705.463C723.767 77.232 733.367 66.608 733.367 47.536C733.367 29.232 723.767 18.864 705.463 18.864H693.303Z" fill="black"/>
</svg>
